<?xml version="1.0" standalone="no"?>
<!DOCTYPE svg PUBLIC "-//W3C//DTD SVG 20010904//EN"
 "http://www.w3.org/TR/2001/REC-SVG-20010904/DTD/svg10.dtd">
<svg version="1.0" xmlns="http://www.w3.org/2000/svg"
 width="960.000000pt" height="960.000000pt" viewBox="0 0 960.000000 960.000000"
 preserveAspectRatio="xMidYMid meet">
<metadata>
Created by potrace 1.11, written by Peter Selinger 2001-2013
</metadata>
<g transform="translate(0.000000,960.000000) scale(0.100000,-0.100000)"
fill="#000000" stroke="none">
<path d="M4720 9575 c0 -22 4 -25 40 -25 29 0 40 -4 40 -15 0 -11 11 -15 40
-15 36 0 40 3 40 24 0 14 5 28 10 31 27 17 2 25 -80 25 -89 0 -90 0 -90 -25z"/>
<path d="M4944 9584 c3 -9 6 -21 6 -27 0 -8 4 -7 9 2 6 10 22 12 54 9 42 -5
67 4 67 24 0 4 -32 8 -71 8 -61 0 -70 -2 -65 -16z"/>
<path d="M5518 9593 c45 -2 82 -8 82 -13 0 -6 18 -10 40 -10 22 0 40 -4 40
-10 0 -5 18 -10 40 -10 22 0 40 5 40 10 0 13 77 13 82 1 2 -5 22 -11 45 -12
30 -2 48 2 62 15 18 16 21 17 21 3 0 -8 3 -22 6 -30 4 -12 -3 -17 -28 -20 -18
-2 22 -5 90 -5 73 -1 122 -6 122 -12 0 -5 18 -10 40 -10 38 0 40 2 40 30 l0
30 120 0 120 0 0 -30 0 -30 80 0 80 0 0 30 0 30 120 0 c99 0 120 -3 120 -15 0
-11 -18 -15 -82 -18 -67 -2 -60 -3 40 -5 116 -2 122 -1 122 18 0 17 7 20 39
20 22 0 42 5 44 13 3 7 6 5 6 -5 1 -14 10 -18 36 -18 19 0 35 -4 35 -10 0 -5
-16 -10 -35 -10 -19 0 -35 -4 -35 -10 0 -6 30 -10 69 -10 54 0 70 3 75 16 9
24 -2 34 -40 34 -46 0 -44 18 3 22 20 2 38 9 41 16 3 9 -177 12 -880 10 -485
-1 -846 -4 -800 -5z m672 -33 c0 -5 -7 -10 -15 -10 -8 0 -15 5 -15 10 0 6 7
10 15 10 8 0 15 -4 15 -10z"/>
<path d="M7280 9549 c0 -32 4 -49 11 -47 6 2 10 7 10 11 -1 4 -1 25 -1 47 0
22 -4 40 -10 40 -5 0 -10 -23 -10 -51z"/>
<path d="M7340 9560 c0 -22 5 -40 10 -40 6 0 10 18 10 40 0 22 -4 40 -10 40
-5 0 -10 -18 -10 -40z"/>
<path d="M7370 9550 l0 -50 35 0 c32 0 35 2 35 30 0 28 2 30 40 30 33 0 40 -3
40 -20 0 -17 7 -20 46 -20 43 0 46 2 40 23 -3 12 -6 30 -6 40 0 15 -12 17
-115 17 l-115 0 0 -50z"/>
<path d="M7612 9583 c2 -12 12 -18 28 -18 16 0 26 6 28 18 3 13 -3 17 -28 17
-25 0 -31 -4 -28 -17z"/>
<path d="M4907 9544 c-13 -13 -7 -24 14 -24 11 0 19 5 17 12 -5 14 -22 21 -31
12z"/>
<path d="M7671 9534 c0 -11 3 -14 6 -6 3 7 2 16 -1 19 -3 4 -6 -2 -5 -13z"/>
<path d="M4462 9466 c1 -14 6 -22 10 -20 12 7 10 44 -2 44 -5 0 -9 -11 -8 -24z"/>
<path d="M4400 9450 c0 -5 7 -10 16 -10 8 0 12 5 9 10 -3 6 -10 10 -16 10 -5
0 -9 -4 -9 -10z"/>
<path d="M6248 9433 c7 -3 16 -2 19 1 4 3 -2 6 -13 5 -11 0 -14 -3 -6 -6z"/>
<path d="M4380 9330 c0 -5 5 -10 10 -10 6 0 10 5 10 10 0 6 -4 10 -10 10 -5 0
-10 -4 -10 -10z"/>
<path d="M5597 8614 c-3 -4 -79 -6 -169 -6 -90 0 -154 -3 -144 -7 18 -7 18 -8
2 -14 -10 -4 -31 -7 -46 -7 -16 0 -51 -9 -79 -19 -27 -11 -57 -20 -67 -20 -11
0 -48 -7 -84 -16 -36 -9 -77 -18 -91 -19 -44 -4 -100 -35 -97 -54 2 -13 -3
-16 -21 -14 -29 5 -101 -26 -101 -43 0 -7 -15 -16 -32 -19 -31 -6 -78 -37 -78
-50 0 -3 8 -6 18 -6 11 0 8 -5 -12 -15 -36 -19 -42 -19 -26 0 16 19 3 20 -15
1 -10 -10 -11 -16 -2 -25 8 -8 5 -16 -11 -31 -12 -12 -22 -28 -22 -36 0 -8
-20 -35 -45 -60 -25 -24 -45 -51 -45 -59 0 -9 -6 -23 -12 -31 -28 -33 -92 -94
-100 -94 -4 0 -8 -7 -8 -16 0 -8 5 -12 10 -9 6 3 1 -9 -10 -28 -52 -88 -69
-202 -76 -517 -8 -388 -6 -489 10 -525 35 -75 46 -107 46 -131 0 -14 -4 -23
-9 -19 -16 9 39 -176 66 -224 13 -24 27 -66 30 -93 4 -31 11 -48 19 -48 8 0
14 -10 14 -23 0 -29 24 -64 34 -49 7 12 19 91 36 232 6 47 17 119 25 160 16
74 33 207 36 272 2 41 17 103 35 144 8 17 18 53 24 80 11 48 12 49 88 87 42
20 101 51 130 67 29 16 78 39 110 49 31 11 72 27 90 36 18 9 38 18 45 19 7 1
30 12 50 24 21 12 44 22 52 22 8 0 16 4 19 9 8 12 109 42 145 43 17 1 31 4 31
8 0 9 71 30 82 24 5 -3 15 -1 23 6 10 9 20 7 40 -6 29 -19 44 -12 25 12 -12
13 -11 17 1 25 19 12 56 11 64 -1 4 -6 15 -6 32 1 18 6 30 6 39 -2 11 -9 14
-8 14 5 0 12 6 15 24 10 17 -4 31 2 51 20 15 14 31 26 36 26 4 0 14 7 22 15
13 12 20 12 53 -4 22 -11 52 -31 67 -45 15 -14 37 -26 48 -26 19 0 59 -33 59
-49 0 -5 7 -14 16 -21 8 -8 14 -25 14 -39 -5 -69 1 -102 20 -118 24 -21 26
-41 5 -49 -24 -9 -17 -24 10 -24 22 0 25 -4 25 -33 0 -21 8 -41 19 -51 36 -33
33 -137 -5 -187 -6 -8 -17 -30 -24 -49 -7 -19 -18 -39 -25 -45 -6 -5 -14 -17
-18 -25 -4 -12 -6 -11 -6 3 -1 9 -7 17 -13 18 -7 0 -25 2 -40 3 -16 1 -28 -2
-28 -7 0 -5 -13 -7 -29 -4 -22 5 -36 -1 -62 -23 -36 -31 -62 -36 -101 -21 -34
13 -101 -2 -129 -27 -12 -12 -27 -22 -31 -22 -5 0 -13 -11 -18 -25 -5 -14 -16
-25 -25 -25 -8 0 -15 -4 -15 -10 0 -5 4 -10 9 -10 16 0 22 -32 32 -150 4 -63
11 -128 13 -145 11 -76 16 -197 7 -213 -5 -9 -12 -52 -15 -94 -7 -80 8 -142
36 -153 25 -10 12 -205 -14 -221 -5 -3 -36 -13 -69 -22 -33 -10 -61 -21 -62
-27 0 -5 -7 -16 -14 -24 -11 -11 -22 -7 -68 25 -56 38 -87 43 -41 6 14 -10 23
-22 20 -24 -2 -3 8 -11 23 -17 16 -6 34 -25 42 -42 9 -22 29 -37 72 -57 53
-24 81 -54 65 -69 -3 -3 -25 -8 -51 -10 -25 -3 -45 -10 -45 -15 0 -19 -163 -2
-260 26 -52 16 -106 33 -120 39 -14 6 -38 12 -53 13 -36 3 -75 29 -88 58 -12
25 11 96 30 96 6 0 11 5 11 11 0 6 14 28 30 49 17 21 30 41 30 44 0 4 9 17 20
29 25 26 50 74 50 95 0 11 -8 13 -37 7 -21 -3 -42 -11 -48 -16 -5 -5 -17 -9
-26 -9 -42 0 -176 -114 -233 -197 -25 -37 -28 -50 -24 -93 4 -34 13 -59 28
-75 29 -31 38 -31 50 0 11 30 24 31 50 5 11 -11 31 -20 45 -20 24 0 47 -13
115 -62 94 -68 111 -78 120 -73 6 3 10 15 10 26 0 10 5 19 10 19 6 0 10 9 10
20 0 23 17 25 44 5 11 -8 37 -15 58 -15 21 0 49 -6 61 -14 12 -7 51 -16 86
-19 41 -3 73 -12 90 -25 26 -19 27 -19 50 -1 27 22 103 26 119 7 5 -7 12 -22
14 -33 4 -18 6 -17 18 7 24 50 80 48 80 -3 0 -16 -5 -29 -10 -29 -6 0 -14 -9
-18 -20 -7 -18 -10 -18 -34 -6 -25 13 -26 12 -32 -15 -4 -21 -13 -30 -38 -37
-27 -8 -20 -9 36 -7 38 1 77 0 87 -2 23 -6 26 -33 4 -33 -8 0 -15 -7 -15 -16
0 -8 -4 -13 -9 -10 -5 3 -28 -5 -52 -19 -29 -15 -73 -27 -129 -34 -47 -6 -86
-16 -88 -21 -2 -6 -11 -6 -24 1 -11 6 -21 9 -23 7 -14 -17 -53 -88 -57 -105
-5 -19 -2 -23 15 -24 12 0 38 -2 57 -4 19 -2 79 -6 132 -9 54 -3 123 -13 155
-22 61 -18 129 -22 177 -11 16 3 37 2 47 -3 17 -10 17 -12 -4 -59 -14 -31 -32
-53 -50 -61 -16 -7 -42 -25 -60 -41 -17 -16 -38 -29 -45 -29 -18 0 -92 -62
-92 -77 0 -6 -13 -14 -30 -18 -16 -4 -30 -13 -30 -21 0 -8 -11 -19 -25 -24
-14 -5 -25 -14 -25 -20 0 -5 -7 -10 -15 -10 -8 0 -15 9 -15 20 0 22 -20 70
-30 70 -10 0 -50 -40 -50 -50 0 -4 6 -11 13 -13 6 -3 0 -6 -15 -6 -16 -1 -28
-5 -28 -11 0 -17 -106 -11 -142 7 -18 10 -36 22 -39 27 -4 4 -10 3 -14 -3 -3
-7 -16 -9 -28 -6 -22 6 -22 6 -2 -10 53 -44 224 -101 288 -97 9 0 17 -3 17 -8
0 -4 20 -20 45 -34 30 -18 45 -34 45 -47 0 -11 4 -28 9 -37 5 -10 3 -55 -3
-110 -11 -82 -11 -94 4 -107 9 -8 22 -15 28 -15 7 0 12 -5 12 -12 0 -25 44
-108 57 -108 11 0 10 -4 -3 -17 -17 -17 -17 -18 4 -21 24 -4 30 -27 10 -35
-10 -4 -10 -8 1 -15 11 -8 11 -11 0 -18 -16 -10 -40 -70 -31 -78 14 -15 114
-5 150 14 31 16 45 18 65 11 32 -12 49 -43 45 -80 -1 -16 3 -36 11 -44 7 -9
11 -20 8 -24 -3 -4 44 -9 104 -9 67 -1 114 -6 123 -13 9 -7 17 -8 20 -3 4 6
21 6 46 0 40 -10 40 -11 34 -47 -11 -56 -104 -165 -188 -219 -39 -25 -73 -48
-76 -52 -7 -9 -65 -31 -76 -29 -13 3 -48 -13 -56 -25 -13 -18 -9 -46 6 -46 17
0 27 -47 19 -94 -7 -45 -45 -84 -89 -92 -19 -3 -34 -10 -34 -15 0 -5 -8 -9
-17 -9 -10 0 -33 -13 -52 -29 -19 -16 -41 -27 -51 -24 -9 3 -20 -2 -23 -10 -3
-8 -19 -18 -36 -22 -17 -4 -36 -15 -42 -26 -5 -11 -13 -18 -17 -15 -10 6 -36
-15 -49 -39 -10 -16 -23 -20 -77 -21 -47 -1 -66 2 -66 11 0 8 16 11 54 8 50
-4 56 -2 96 34 24 21 51 51 60 66 17 27 17 31 -1 80 -10 28 -24 54 -31 59 -9
5 -9 8 -2 8 9 0 9 9 0 32 -28 78 -69 139 -141 209 -87 85 -104 96 -115 79 -4
-7 -12 0 -20 20 -19 46 -31 47 -24 0 6 -38 8 -75 5 -107 -2 -22 -48 -15 -54 8
-4 16 -2 19 10 15 13 -5 14 -4 3 9 -10 12 -16 13 -26 4 -10 -8 -14 -8 -14 0 0
6 -5 11 -11 11 -21 0 -235 191 -235 210 0 3 -9 15 -19 28 -11 12 -25 48 -31
80 -9 41 -12 49 -14 27 -1 -24 -3 -26 -9 -11 -4 11 -5 35 -1 55 8 50 -9 119
-81 330 -19 57 -18 84 2 35 26 -66 49 -109 56 -106 4 2 10 -4 11 -14 2 -9 -1
-14 -6 -10 -6 4 -8 -2 -5 -14 3 -11 10 -20 15 -20 5 0 7 -4 4 -8 -2 -4 4 -9
15 -9 34 -3 112 -121 125 -190 3 -18 11 -33 16 -33 6 0 8 -6 5 -14 -3 -7 0
-19 6 -25 8 -8 7 -11 -6 -11 -10 0 -23 -15 -32 -36 -18 -44 -18 -44 -2 -44 6
0 21 -19 32 -43 16 -34 27 -44 57 -51 43 -11 69 4 61 34 -5 18 -7 18 -26 5
-30 -21 -53 -19 -71 7 -22 32 -20 38 14 38 17 0 30 -4 30 -8 0 -4 9 -8 21 -9
18 -2 18 0 -5 18 -15 11 -24 25 -21 30 4 5 -1 9 -9 9 -9 0 -16 6 -16 14 0 22
37 8 76 -29 44 -42 63 -50 57 -24 -3 10 -9 16 -14 13 -5 -3 -9 11 -9 30 0 20
-4 36 -9 36 -5 0 -11 12 -14 28 -3 15 -21 43 -40 62 -58 58 -225 297 -270 386
-28 56 -54 238 -44 311 3 21 -3 94 -13 163 -10 69 -24 166 -31 215 -6 50 -15
94 -19 98 -10 11 -179 -155 -219 -215 -32 -48 -114 -210 -123 -244 -6 -23
-283 -167 -413 -215 -105 -39 -131 -55 -221 -135 -37 -32 -76 -67 -88 -77 -12
-11 -37 -27 -56 -37 -19 -10 -40 -27 -47 -39 -8 -12 -22 -19 -40 -19 -29 1
-93 -22 -115 -42 -27 -22 -137 -88 -199 -119 -185 -93 -277 -170 -405 -341
-43 -58 -84 -111 -91 -118 -44 -45 -70 -204 -104 -627 -13 -167 -17 -195 -31
-192 -7 1 -14 -6 -16 -16 -2 -10 2 -17 12 -17 9 0 16 -6 16 -13 0 -21 -48
-295 -69 -400 -12 -54 -28 -146 -37 -205 -8 -59 -22 -132 -30 -162 -8 -30 -21
-89 -29 -130 -8 -41 -21 -106 -29 -145 -9 -38 -21 -95 -27 -125 -6 -30 -15
-68 -20 -85 -5 -16 -18 -86 -28 -155 -11 -69 -34 -190 -51 -270 -18 -84 -35
-202 -40 -280 -5 -74 -19 -198 -30 -275 -12 -77 -24 -184 -27 -237 l-6 -98
3667 0 c3333 0 3666 1 3666 16 0 8 -9 66 -19 127 -11 62 -23 153 -26 202 -25
374 -45 527 -103 825 -43 217 -65 357 -76 485 -9 99 -29 268 -45 375 -25 164
-28 208 -21 275 5 44 12 159 16 256 l7 175 -37 115 c-21 62 -53 157 -71 209
-17 52 -39 124 -48 160 -8 36 -37 105 -64 153 -53 95 -227 341 -271 381 -49
46 -294 198 -482 299 -211 113 -778 398 -890 447 -41 18 -118 54 -170 80 -88
44 -234 90 -286 90 -24 0 -114 85 -114 107 0 21 -41 135 -68 188 -13 27 -48
72 -77 101 -28 28 -69 73 -90 98 -21 26 -59 59 -84 73 -25 15 -48 28 -49 29
-2 1 9 22 26 46 97 143 124 233 178 591 15 99 20 117 33 111 9 -4 34 -9 56
-11 50 -6 100 26 132 81 36 66 83 307 83 433 0 30 8 83 17 117 12 44 17 105
17 221 l1 160 -26 12 c-18 9 -36 10 -57 3 -29 -8 -33 -6 -38 16 -3 13 -3 35 0
48 3 13 6 151 7 307 2 340 -15 491 -58 541 -8 9 -12 21 -9 27 4 5 -5 22 -19
38 -13 15 -25 23 -25 17 0 -7 7 -14 15 -18 8 -3 15 -13 15 -22 0 -13 -8 -9
-30 14 -36 38 -37 42 -9 42 43 0 0 27 -64 40 -55 12 -146 60 -155 82 -2 5 -9
14 -15 21 -7 7 -17 22 -24 32 -6 11 -17 19 -25 17 -7 -2 -10 0 -6 3 11 12 -71
85 -114 102 -26 11 -37 20 -34 30 3 8 1 11 -4 8 -6 -3 -10 -1 -10 4 0 6 -6 11
-12 11 -7 0 -22 14 -33 30 -11 16 -29 30 -40 30 -11 0 -44 11 -73 25 -30 14
-62 25 -72 25 -10 0 -31 5 -47 11 -15 6 -43 13 -62 15 -18 2 -38 7 -45 12 -6
6 -26 13 -44 17 -17 3 -53 18 -78 31 -50 27 -132 33 -230 18 -34 -5 -45 -4
-40 5 8 12 3 15 -7 5z m-807 -204 c-20 -13 -43 -13 -35 0 3 6 16 10 28 10 18
0 19 -2 7 -10z m360 -484 c0 -2 -7 -7 -16 -10 -8 -3 -12 -2 -9 4 6 10 25 14
25 6z m59 -147 c-8 -5 -23 -9 -34 -8 -18 0 -17 1 5 13 26 15 52 10 29 -5z m47
-14 c-11 -8 -25 -15 -30 -15 -6 0 -2 7 8 15 11 8 25 15 30 15 6 0 2 -7 -8 -15z
m-526 -437 c0 -6 -3 -8 -7 -5 -3 4 -14 0 -24 -9 -9 -8 -30 -14 -45 -12 -26 3
-25 4 16 25 44 22 60 22 60 1z m-64 -53 c-11 -8 -27 -15 -35 -15 -13 1 -12 4
3 15 11 8 27 15 35 15 13 -1 12 -4 -3 -15z m1514 -45 c0 -5 -4 -10 -10 -10 -5
0 -10 5 -10 10 0 6 5 10 10 10 6 0 10 -4 10 -10z m-230 -320 c0 -5 -5 -10 -11
-10 -5 0 -7 5 -4 10 3 6 8 10 11 10 2 0 4 -4 4 -10z m452 -545 c65 -34 71 -51
38 -110 -11 -20 -20 -42 -20 -49 0 -20 -28 -71 -50 -91 -11 -10 -18 -26 -15
-35 3 -10 -5 -25 -20 -38 -23 -20 -25 -20 -34 -4 -10 16 -10 16 -11 0 0 -23
-18 -32 -35 -18 -12 10 -15 10 -15 -1 0 -9 -12 -14 -30 -15 -17 -1 -30 3 -30
7 0 5 -14 9 -30 9 -17 0 -43 9 -59 21 -24 17 -42 25 -72 28 -4 1 -23 16 -42
34 -27 24 -42 52 -61 110 -37 111 -35 138 11 164 35 20 50 22 228 20 l190 -2
57 -30z m-16 -662 c20 -26 18 -113 -2 -113 -26 0 -58 103 -37 123 11 12 25 8
39 -10z m-1586 -1395 c0 -49 -5 -47 -14 5 -4 23 -3 37 4 37 5 0 10 -19 10 -42z
m31 -88 l-5 -25 -6 25 c-3 14 -4 36 -1 50 l5 25 6 -25 c3 -14 4 -36 1 -50z
m-495 -64 c-6 -19 -12 -33 -14 -31 -7 6 9 65 17 65 5 0 3 -15 -3 -34z m556
-64 c2 -26 0 -41 -7 -39 -5 2 -11 26 -13 53 -4 61 14 48 20 -14z m32 -104 c4
-31 2 -59 -3 -62 -10 -6 -20 78 -13 107 7 26 10 18 16 -45z m-24 48 c0 -3 -4
-8 -10 -11 -5 -3 -10 -1 -10 4 0 6 5 11 10 11 6 0 10 -2 10 -4z m-594 -140
c-3 -12 -6 -27 -6 -34 0 -7 -4 -10 -10 -7 -17 10 -12 62 6 62 11 0 14 -7 10
-21z m2134 -192 c0 -8 -4 -12 -10 -9 -5 3 -10 10 -10 16 0 5 5 9 10 9 6 0 10
-7 10 -16z m520 -113 l25 -20 -28 -25 c-33 -30 -79 -56 -102 -56 -8 0 -15 -5
-15 -10 0 -6 -8 -14 -17 -17 -28 -11 -95 -81 -88 -93 3 -5 1 -10 -5 -10 -6 0
-14 -8 -17 -17 -4 -10 -13 -24 -21 -32 -7 -7 -11 -19 -8 -27 3 -7 0 -14 -5
-16 -6 -2 -12 -16 -15 -31 -2 -15 -7 -39 -10 -54 -3 -16 -6 -35 -8 -43 -1 -8
-8 -25 -14 -37 -8 -14 -9 -24 -2 -28 6 -4 4 -12 -5 -22 -9 -9 -14 -22 -11 -29
3 -8 1 -14 -4 -14 -5 0 -12 -10 -16 -22 -3 -13 -13 -31 -21 -40 -8 -9 -12 -21
-9 -27 4 -6 -2 -16 -14 -23 -11 -7 -20 -17 -20 -21 0 -11 -57 -85 -82 -108
-10 -9 -18 -19 -18 -22 0 -11 -79 -87 -90 -87 -6 0 -13 -7 -16 -15 -4 -8 -12
-15 -19 -15 -8 0 -16 -9 -20 -19 -4 -13 -12 -18 -21 -14 -8 3 -14 2 -13 -3 4
-21 -2 -34 -16 -34 -8 0 -12 -6 -9 -14 3 -7 -1 -20 -8 -27 -8 -8 -27 -35 -43
-61 -23 -36 -36 -48 -54 -48 -24 0 -24 0 -5 -15 19 -15 19 -15 -1 -33 -11 -9
-19 -25 -17 -35 2 -9 -3 -20 -11 -23 -9 -3 -13 -13 -10 -25 4 -13 0 -19 -11
-19 -10 0 -14 -5 -11 -10 4 -6 4 -18 1 -27 -5 -11 -10 -12 -19 -4 -10 8 -19 7
-33 -5 -15 -13 -16 -15 -2 -10 19 6 43 -18 34 -33 -4 -6 -12 -9 -19 -7 -7 1
-9 1 -4 -1 11 -7 8 -53 -4 -53 -6 0 -9 -6 -6 -12 2 -7 -1 -22 -6 -33 -11 -19
-12 -24 -15 -52 -2 -15 -32 -18 -32 -4 0 5 6 12 13 15 10 5 10 7 0 12 -7 3
-13 21 -13 40 0 28 4 35 25 40 14 3 25 10 25 14 0 5 -8 6 -19 3 -17 -4 -18 5
-19 180 0 101 3 190 8 197 8 13 39 18 137 23 29 2 55 6 59 9 3 4 12 4 20 1 12
-4 14 0 8 22 -6 25 -5 28 15 22 22 -5 26 0 13 20 -4 7 -16 10 -27 8 -11 -2
-24 -4 -28 -4 -5 -1 -5 -6 -1 -13 5 -7 3 -8 -7 -3 -18 12 -66 10 -128 -5 -56
-13 -71 -9 -52 14 7 9 44 16 104 21 50 4 100 9 110 10 10 2 31 0 47 -5 26 -8
29 -6 27 13 -1 17 3 22 19 20 17 -2 21 2 17 17 -4 15 0 20 16 20 12 0 21 6 21
15 0 8 4 15 9 15 5 0 14 12 19 28 6 15 21 54 35 88 l24 61 -33 -4 c-19 -2 -45
-8 -58 -13 -13 -5 -37 -5 -53 -1 -27 7 -26 8 22 19 28 7 67 13 88 14 41 2 51
10 60 46 6 24 5 24 -56 17 -44 -4 -58 -3 -47 4 8 6 25 11 38 11 12 0 22 5 22
10 0 6 11 10 24 10 34 0 47 16 80 97 15 39 39 82 52 96 13 15 24 30 23 34 -1
4 -1 17 0 28 1 16 3 17 10 6 8 -12 13 -11 30 10 11 13 18 30 16 37 -2 6 0 12
5 12 6 0 9 3 9 8 -5 31 4 54 24 61 13 5 34 23 48 40 13 17 31 31 39 31 8 0 24
14 35 30 11 16 23 30 28 30 4 0 7 7 7 15 0 8 6 12 13 9 7 -2 26 7 43 21 35 30
33 30 64 6z m-1545 -107 c-10 -7 -22 -11 -28 -7 -6 3 -3 11 8 19 10 7 22 11
28 7 6 -3 3 -11 -8 -19z m15 -64 c0 -12 -42 -31 -50 -23 -6 5 30 33 42 33 4 0
8 -5 8 -10z m0 -40 c0 -5 -10 -10 -22 -10 -19 0 -20 2 -8 10 19 13 30 13 30 0z
m20 -74 c0 -2 -7 -7 -16 -10 -8 -3 -12 -2 -9 4 6 10 25 14 25 6z m105 -196 c3
-5 1 -10 -4 -10 -6 0 -11 5 -11 10 0 6 2 10 4 10 3 0 8 -4 11 -10z m43 -85 c3
-3 -32 -5 -77 -5 -45 0 -80 4 -77 9 6 9 145 6 154 -4z m-248 -55 c0 -5 -7 -10
-15 -10 -8 0 -15 5 -15 10 0 6 7 10 15 10 8 0 15 -4 15 -10z m37 -6 c-3 -3
-12 -4 -19 -1 -8 3 -5 6 6 6 11 1 17 -2 13 -5z m783 -71 c0 -5 -23 -9 -51 -10
-29 -1 -59 -5 -68 -9 -27 -12 -41 -13 -47 -3 -3 5 4 9 15 9 11 0 23 5 26 10 7
11 125 14 125 3z m-805 -13 c4 -6 -8 -10 -29 -10 -20 0 -36 5 -36 10 0 6 13
10 29 10 17 0 33 -4 36 -10z m195 2 c0 -11 -30 -37 -52 -45 -13 -4 -15 -2 -11
10 5 12 2 15 -10 10 -11 -4 -14 -2 -11 8 4 10 15 12 35 8 18 -3 29 -1 29 6 0
6 5 11 10 11 6 0 10 -4 10 -8z m380 -30 c0 -14 -11 -21 -26 -15 -21 8 -17 23
6 23 11 0 20 -4 20 -8z m-417 -44 c-8 -31 -22 -48 -40 -48 -13 0 -13 3 -3 15
7 8 9 15 5 15 -5 0 2 9 15 20 29 25 29 25 23 -2z m615 -2 c42 3 97 9 122 15
47 10 115 9 102 -2 -14 -12 -158 -32 -224 -30 -71 2 -135 -20 -122 -41 4 -7 3
-8 -5 -4 -6 4 -9 12 -6 17 3 5 -1 6 -9 3 -19 -7 -20 5 -3 27 7 9 18 14 26 11
10 -3 12 0 8 12 -6 15 -5 15 14 2 15 -10 41 -13 97 -10z m-714 -26 c7 -7 0
-10 -19 -10 -59 0 -135 13 -135 23 0 12 140 1 154 -13z m376 -20 c0 -5 -9 -10
-20 -10 -11 0 -20 5 -20 10 0 6 9 10 20 10 11 0 20 -4 20 -10z m130 1 c0 -11
-39 -21 -45 -11 -2 4 -2 10 2 14 10 9 43 7 43 -3z m295 -14 c0 -7 12 -13 28
-15 34 -4 36 -22 1 -22 -14 0 -40 -10 -57 -22 -22 -15 -28 -17 -18 -5 12 16 9
17 -42 13 -60 -4 -81 -12 -71 -28 4 -7 2 -8 -5 -4 -6 4 -9 12 -6 17 8 11 -31
6 -42 -6 -5 -4 -3 -5 3 -2 6 3 11 0 11 -8 0 -11 -5 -10 -24 2 -12 8 -23 19
-23 23 0 12 127 37 201 39 9 1 19 11 22 23 6 22 22 18 22 -5z m-739 -65 c-18
-16 -19 -16 -12 1 3 10 6 24 6 30 0 8 4 7 12 -1 10 -9 8 -16 -6 -30z m437 -2
c4 -14 0 -20 -12 -20 -25 0 -29 7 -23 35 3 19 8 23 17 15 7 -6 15 -20 18 -30z
m-544 14 c12 -11 -12 -14 -63 -8 -31 4 -56 11 -56 17 0 9 109 1 119 -9z m417
1 c4 -9 19 -15 41 -15 20 0 32 -4 28 -10 -7 -11 -123 -14 -149 -4 -29 11 -7
22 34 17 38 -5 57 9 28 20 -10 4 -10 6 0 6 7 1 15 -6 18 -14z m-606 -5 c0 -5
-4 -10 -9 -10 -6 0 -13 5 -16 10 -3 6 1 10 9 10 9 0 16 -4 16 -10z m965 -9
c-9 -8 -36 -10 -30 -2 2 4 11 8 20 8 8 0 13 -3 10 -6z m-935 -31 c0 -5 -4 -10
-10 -10 -5 0 -10 5 -10 10 0 6 5 10 10 10 6 0 10 -4 10 -10z m30 -40 c0 -5 -4
-10 -10 -10 -5 0 -10 5 -10 10 0 6 5 10 10 10 6 0 10 -4 10 -10z m114 -6 c31
-12 16 -25 -21 -18 -58 10 -75 23 -31 24 20 0 43 -3 52 -6z m113 -26 c-3 -7
-5 -2 -5 12 0 14 2 19 5 13 2 -7 2 -19 0 -25z m453 1 c0 -5 -24 -19 -33 -19
-1 0 -3 11 -3 24 -2 22 0 23 17 13 10 -6 19 -15 19 -18z m-162 13 c17 -1 32
-6 32 -10 0 -11 -124 -6 -128 6 -2 8 8 9 96 4z m-463 -72 c3 -5 1 -10 -4 -10
-6 0 -11 5 -11 10 0 6 2 10 4 10 3 0 8 -4 11 -10z m180 -53 c4 -29 2 -47 -5
-47 -5 0 -10 -7 -10 -16 0 -10 6 -14 15 -10 8 3 15 1 15 -4 0 -6 -6 -10 -12
-10 -10 0 -10 -2 0 -9 10 -6 10 -10 -3 -21 -15 -13 -21 -41 -7 -39 19 3 22 -3
12 -21 -23 -42 -30 -18 -30 98 0 103 5 141 16 129 2 -2 6 -24 9 -50z m-112 36
c-7 -2 -21 -2 -30 0 -10 3 -4 5 12 5 17 0 24 -2 18 -5z m322 -13 c-18 -8 -17
-9 8 -9 16 -1 26 3 22 9 -3 6 1 10 9 10 18 0 12 -25 -12 -52 -13 -16 -13 -18
3 -24 11 -5 21 -1 27 9 5 10 16 17 24 17 8 0 12 5 9 10 -9 15 29 12 61 -5 21
-11 24 -15 11 -15 -10 0 -16 -3 -14 -8 8 -11 -35 -59 -60 -66 -12 -4 -24 -2
-28 4 -3 5 2 10 12 11 11 0 13 3 5 6 -6 2 -9 9 -6 15 4 6 -7 8 -27 6 -26 -2
-33 -7 -31 -20 2 -10 -2 -18 -8 -18 -6 0 -8 -4 -5 -10 3 -5 1 -10 -5 -10 -6 0
-8 -4 -5 -10 3 -5 -1 -10 -9 -10 -19 0 -22 -20 -3 -21 9 0 9 -2 -1 -6 -6 -2
-9 -9 -6 -15 4 -6 -1 -8 -14 -4 -11 4 -23 2 -27 -4 -8 -13 -55 -13 -55 0 0 6
-11 8 -25 4 -14 -3 -25 -2 -26 2 0 5 -2 16 -4 25 -2 11 12 24 41 39 24 13 41
27 38 31 -3 5 2 6 11 2 21 -7 35 12 35 49 0 15 7 33 15 41 8 8 11 17 8 21 -4
3 7 6 23 5 25 0 26 -2 9 -9z m171 -2 c3 -4 -13 -8 -36 -8 -25 0 -39 4 -35 10
7 12 64 10 71 -2z m61 -5 c3 -7 -4 -9 -16 -6 -12 3 -18 9 -15 15 7 11 26 6 31
-9z m-527 -19 c0 -8 -4 -14 -9 -14 -11 0 -22 26 -14 34 9 9 23 -3 23 -20z
m150 11 c0 -8 -4 -15 -10 -15 -5 0 -10 7 -10 15 0 8 5 15 10 15 6 0 10 -7 10
-15z m-6 -40 c-4 -8 -10 -15 -15 -15 -4 0 -6 7 -3 15 4 8 10 15 15 15 4 0 6
-7 3 -15z m386 4 c0 -10 -24 -39 -32 -39 -2 0 -5 11 -6 25 -1 19 3 25 18 25
11 0 20 -5 20 -11z m-390 -49 c0 -5 -4 -10 -9 -10 -6 0 -13 5 -16 10 -3 6 1
10 9 10 9 0 16 -4 16 -10z m400 -5 c0 -2 -8 -18 -19 -35 -15 -25 -20 -28 -25
-15 -13 36 -7 55 19 55 14 0 25 -2 25 -5z m-170 -35 c12 -8 11 -10 -7 -10 -12
0 -25 5 -28 10 -8 13 15 13 35 0z m90 -56 c0 -26 -26 -44 -64 -44 -39 0 -51
19 -13 21 21 1 21 1 -3 9 -21 7 -22 8 -5 10 l20 1 -20 9 c-15 6 -6 9 33 9 41
1 52 -2 52 -15z m66 0 c-3 -9 -6 -22 -6 -30 0 -8 -7 -14 -15 -14 -10 0 -15 10
-15 30 0 24 4 30 21 30 15 0 19 -4 15 -16z m-196 -19 c0 -8 -7 -15 -15 -15
-13 0 -14 3 -3 15 16 18 18 18 18 0z m-126 -15 c17 0 18 -2 6 -10 -13 -8 -12
-10 3 -10 9 0 17 -3 17 -7 0 -10 -102 -4 -114 7 -16 16 6 32 36 26 17 -3 40
-6 52 -6z m-124 -15 c5 3 12 0 15 -6 5 -7 1 -10 -10 -7 -10 1 -20 9 -21 16 -1
7 0 8 3 2 2 -5 9 -8 13 -5z m230 -21 c0 -2 -17 -4 -37 -3 -29 0 -33 2 -18 8
18 7 55 4 55 -5z m127 10 c-3 -3 -12 -4 -19 -1 -8 3 -5 6 6 6 11 1 17 -2 13
-5z m-240 -50 c-3 -3 -12 -4 -19 -1 -8 3 -5 6 6 6 11 1 17 -2 13 -5z m28 -4
c3 -5 1 -10 -4 -10 -6 0 -11 5 -11 10 0 6 2 10 4 10 3 0 8 -4 11 -10z m285
-10 c0 -5 -4 -10 -10 -10 -5 0 -10 5 -10 10 0 6 5 10 10 10 6 0 10 -4 10 -10z
m-61 -40 c-6 -5 -19 -6 -27 -2 -13 4 -12 7 4 12 23 9 41 1 23 -10z m81 0 c0
-5 -9 -10 -20 -10 -11 0 -20 5 -20 10 0 6 9 10 20 10 11 0 20 -4 20 -10z
m-335 -30 c3 -5 1 -10 -4 -10 -6 0 -11 5 -11 10 0 6 2 10 4 10 3 0 8 -4 11
-10z m155 -10 c0 -5 -7 -10 -15 -10 -8 0 -15 -7 -15 -15 0 -11 -11 -15 -42
-15 -32 0 -39 3 -28 10 8 5 26 10 40 11 17 1 19 3 8 6 -31 8 -19 23 17 23 19
0 35 -4 35 -10z m110 -25 c0 -27 -17 -31 -55 -15 -18 8 -17 9 8 9 15 1 27 6
27 12 0 6 -6 9 -13 6 -8 -3 -19 -2 -26 2 -7 4 3 8 24 9 31 1 35 -1 35 -23z
m-263 -1 c-3 -3 -12 -4 -19 -1 -8 3 -5 6 6 6 11 1 17 -2 13 -5z m328 -25 c-8
-12 -32 -12 -40 1 -11 18 5 31 26 20 11 -6 17 -15 14 -21z m-245 -29 c11 -7 8
-9 -15 -9 -16 1 -43 5 -60 9 -27 7 -26 8 15 9 25 0 52 -4 60 -9z m170 -15 c0
-2 -14 -3 -31 -3 -17 1 -25 4 -18 8 10 7 49 2 49 -5z m62 -2 c-9 -4 -10 -9 -2
-18 8 -9 7 -14 -4 -18 -8 -3 -18 4 -25 19 -10 22 -9 24 17 23 15 0 21 -3 14
-6z m-247 -12 l40 -9 -40 0 c-22 0 -49 3 -60 8 l-20 9 20 0 c11 0 38 -4 60 -8z
m305 -1 c0 -5 -4 -10 -10 -10 -5 0 -10 5 -10 10 0 6 5 10 10 10 6 0 10 -4 10
-10z m-160 -10 c0 -5 -6 -10 -14 -10 -8 0 -18 5 -21 10 -3 6 3 10 14 10 12 0
21 -4 21 -10z m45 0 c3 -5 -3 -10 -14 -10 -12 0 -21 5 -21 10 0 6 6 10 14 10
8 0 18 -4 21 -10z m-5 -49 c10 -1 11 -4 3 -12 -6 -6 -9 -18 -6 -26 5 -12 -3
-14 -48 -9 -30 3 -60 5 -68 6 -15 0 -6 15 10 15 5 0 8 5 7 10 -2 6 -6 9 -10 8
-5 -2 -8 1 -8 6 0 8 39 9 120 2z m71 -15 c-10 -11 -8 -17 6 -25 14 -8 16 -12
6 -22 -10 -10 -13 -10 -13 -1 0 7 -9 12 -20 12 -15 0 -20 7 -20 25 0 20 5 25
26 25 22 0 24 -3 15 -14z m2 -83 c4 -2 2 -14 -5 -26 -7 -12 -11 -30 -9 -39 1
-10 -3 -18 -8 -18 -6 0 -11 11 -11 24 0 13 -6 27 -12 30 -10 5 -10 7 -1 12 7
3 9 12 6 20 -5 13 11 12 40 -3z m-66 -26 c-3 -11 -19 -12 -99 -6 -54 4 -27 17
38 18 48 1 64 -3 61 -12z m3 -87 c0 -13 -40 -13 -60 0 -11 7 -5 10 23 10 20 0
37 -4 37 -10z m40 -5 c0 -8 -4 -15 -10 -15 -5 0 -10 7 -10 15 0 8 5 15 10 15
6 0 10 -7 10 -15z m-16 -45 c4 -5 5 -14 1 -20 -6 -9 -10 -9 -16 1 -4 8 -23 14
-41 15 -18 1 -44 2 -58 4 l-25 2 25 8 c28 8 100 2 114 -10z m-4 -55 c0 -2 -7
-11 -16 -19 -18 -18 -79 -21 -90 -5 -5 8 6 10 35 7 34 -3 41 0 41 14 0 11 5
15 15 12 8 -4 15 -8 15 -9z m-20 -65 c0 -11 -4 -20 -10 -20 -5 0 -10 9 -10 20
0 11 5 20 10 20 6 0 10 -9 10 -20z m-2 -58 c2 -8 -8 -12 -30 -11 -18 1 -25 3
-15 6 9 2 17 9 17 15 0 13 23 5 28 -10z m-10 -55 c2 -10 -3 -17 -12 -17 -10 0
-16 9 -16 21 0 24 23 21 28 -4z m-15 -144 c-8 -59 -14 -116 -14 -126 0 -10 -6
-16 -12 -14 -7 2 -11 15 -9 29 3 25 -23 63 -36 54 -4 -2 -6 -24 -4 -48 3 -38
7 -44 25 -44 26 1 29 -11 58 -262 12 -110 18 -197 13 -201 -12 -11 -173 -31
-192 -24 -13 5 -14 29 -8 167 4 89 14 193 22 231 9 39 16 80 16 93 0 12 4 22
9 22 12 0 -1 53 -15 62 -6 4 2 11 17 17 35 14 54 14 62 1 3 -5 13 -10 22 -10
12 0 13 3 3 15 -14 16 -6 35 16 35 20 0 18 16 -3 25 -16 6 -15 8 7 26 17 14
21 22 13 26 -7 2 -13 11 -13 18 0 13 20 25 31 19 3 -1 -1 -52 -8 -111z"/>
<path d="M5760 2430 c0 -5 5 -10 10 -10 6 0 10 5 10 10 0 6 -4 10 -10 10 -5 0
-10 -4 -10 -10z"/>
<path d="M5780 1898 c0 -4 9 -8 20 -8 11 0 20 4 20 8 0 4 -9 8 -20 8 -11 0
-20 -4 -20 -8z"/>
<path d="M5762 1073 c-2 -46 -22 -58 -42 -25 -9 14 -10 12 -8 -13 3 -25 7 -30
27 -27 33 3 33 3 28 58 l-3 49 -2 -42z"/>
<path d="M5720 753 c-28 -5 -40 -19 -40 -45 0 -26 64 -35 106 -14 25 12 34 22
34 41 0 22 -4 25 -37 24 -21 -1 -49 -4 -63 -6z"/>
<path d="M6525 8300 c3 -5 8 -10 11 -10 2 0 4 5 4 10 0 6 -5 10 -11 10 -5 0
-7 -4 -4 -10z"/>
<path d="M5550 7530 c0 -5 5 -10 10 -10 6 0 10 5 10 10 0 6 -4 10 -10 10 -5 0
-10 -4 -10 -10z"/>
<path d="M6085 7010 c-3 -5 -2 -10 4 -10 5 0 13 5 16 10 3 6 2 10 -4 10 -5 0
-13 -4 -16 -10z"/>
<path d="M5194 6820 c-6 -6 -48 -11 -93 -11 -61 0 -84 -4 -88 -15 -3 -8 -14
-14 -24 -14 -11 0 -35 -6 -54 -14 -19 -8 -37 -11 -40 -6 -7 12 -55 -12 -55
-29 0 -7 -6 -11 -13 -8 -8 3 -20 1 -28 -4 -11 -7 -10 -9 6 -9 20 -1 20 -1 0
-12 -10 -6 -29 -21 -42 -34 l-22 -22 34 -6 c36 -7 38 -22 7 -58 -8 -10 -11
-18 -6 -18 5 0 -4 -9 -20 -19 -27 -18 -27 -19 -7 -26 18 -5 19 -10 10 -27 -15
-29 -3 -35 24 -11 15 14 42 22 92 27 39 4 96 10 129 13 48 5 60 3 68 -10 5
-10 21 -17 38 -17 15 0 35 -3 44 -6 17 -7 10 -34 -9 -34 -8 0 -20 -6 -27 -12
-18 -18 -78 -46 -108 -52 -14 -3 4 -3 40 -2 71 4 172 40 164 60 -4 11 59 38
124 51 43 9 53 36 45 119 -4 48 -2 75 11 105 21 53 21 51 -14 51 -19 0 -33 6
-37 16 -5 13 -7 13 -14 2 -7 -11 -9 -11 -9 1 0 7 -6 11 -15 7 -8 -3 -15 -1
-15 4 0 5 -12 8 -27 6 -16 -1 -35 3 -44 11 -10 8 -19 9 -25 3z"/>
<path d="M5602 5370 c0 -14 2 -19 5 -12 2 6 2 18 0 25 -3 6 -5 1 -5 -13z"/>
<path d="M5600 5327 c0 -8 -3 -22 -6 -31 -4 -11 -1 -16 10 -16 13 0 15 6 10
28 -8 33 -14 41 -14 19z"/>
<path d="M2274 4903 c-3 -13 -13 -23 -20 -23 -8 0 -14 -5 -14 -11 0 -6 9 -8
23 -3 12 4 28 7 35 7 16 0 15 9 -3 33 -14 19 -15 19 -21 -3z"/>
<path d="M2098 4903 c12 -2 32 -2 45 0 12 2 2 4 -23 4 -25 0 -35 -2 -22 -4z"/>
<path d="M1938 4889 c-6 -4 -17 -5 -24 -2 -6 2 -15 0 -19 -6 -3 -6 2 -12 12
-12 10 -1 23 -2 28 -4 6 -1 16 -3 24 -3 35 -4 -4 -13 -93 -21 -54 -6 -101 -12
-104 -15 -12 -13 8 -16 45 -8 26 6 51 5 74 -2 50 -16 119 1 119 30 0 15 6 20
22 20 14 -1 24 6 26 16 3 15 -4 17 -48 15 -28 0 -56 -4 -62 -8z"/>
<path d="M2320 4890 c0 -5 5 -10 11 -10 5 0 7 5 4 10 -3 6 -8 10 -11 10 -2 0
-4 -4 -4 -10z"/>
<path d="M2143 4873 c9 -2 23 -2 30 0 6 3 -1 5 -18 5 -16 0 -22 -2 -12 -5z"/>
<path d="M1548 4822 c-27 -2 -48 -7 -48 -12 0 -4 -75 -11 -167 -14 -318 -11
-526 -38 -562 -70 -19 -17 -74 -27 -221 -41 -138 -12 -236 -31 -259 -48 -7 -6
-36 -14 -65 -19 -165 -23 -219 -42 -157 -54 l34 -7 -24 -18 c-13 -10 -30 -19
-36 -19 -7 0 -13 -7 -13 -15 0 -12 4 -13 19 -5 21 10 51 4 51 -11 0 -5 8 -9
17 -9 12 0 14 -3 6 -11 -10 -10 -29 -13 -100 -18 -23 -1 -23 -1 -23 -192 l0
-190 48 3 47 3 0 40 0 40 -42 -1 c-24 0 -43 1 -43 2 0 2 4 14 10 28 12 34 28
33 42 -1 9 -22 12 -24 15 -10 3 9 11 17 19 17 8 0 17 6 19 13 4 8 24 11 65 9
56 -4 60 -5 60 -28 0 -20 5 -24 28 -24 16 0 32 -8 40 -20 10 -17 23 -20 87
-20 77 0 120 12 129 37 3 8 1 11 -4 8 -6 -4 -10 10 -10 34 0 30 4 41 15 41 11
0 15 -11 15 -40 0 -22 5 -40 10 -40 6 0 10 11 10 25 0 23 4 25 40 25 29 0 40
-4 40 -15 0 -11 11 -15 40 -15 22 0 40 -4 40 -10 0 -20 18 -9 24 15 4 14 11
25 16 25 5 0 12 -11 16 -25 6 -25 24 -35 24 -14 0 6 18 9 45 8 39 -3 49 1 80
31 32 31 35 32 35 12 0 -27 16 -28 32 -2 14 22 44 27 51 8 4 -10 7 -10 18 0 8
8 46 12 107 12 l94 0 -4 40 c-2 28 0 40 9 40 7 0 13 -9 13 -20 0 -17 7 -20 40
-20 22 0 40 5 40 10 0 6 7 10 15 10 8 0 15 5 15 10 0 6 23 10 51 10 38 0 55
-5 65 -17 13 -17 13 -17 14 0 0 13 9 17 40 17 22 0 40 5 40 10 0 6 18 10 40
10 22 0 40 5 40 10 0 6 12 10 26 10 17 0 28 6 31 20 3 11 9 20 14 20 5 0 9 5
9 10 0 6 -18 10 -40 10 -22 0 -40 5 -40 10 0 6 -12 10 -26 10 -17 0 -28 -6
-31 -20 -3 -11 -9 -20 -14 -20 -13 0 -11 44 3 58 6 6 8 15 3 19 -4 5 -10 2
-12 -4 -6 -16 -163 -18 -163 -3 0 6 9 10 20 10 13 0 20 7 20 20 0 11 -6 20
-14 20 -8 0 -17 10 -19 23 -4 18 -5 17 -6 -6 -1 -33 -24 -32 -29 1 -2 12 -10
22 -18 22 -10 0 -14 14 -14 56 0 53 -1 55 -34 69 -35 15 -56 35 -36 35 6 0 22
12 35 26 19 21 32 25 63 23 22 -2 47 3 56 10 8 7 24 10 36 6 14 -5 20 -2 20 9
0 18 55 23 65 6 3 -6 38 -9 76 -8 38 1 64 5 58 9 -8 5 -6 9 7 12 33 8 -91 15
-178 9z m120 -19 c-10 -2 -26 -2 -35 0 -10 3 -2 5 17 5 19 0 27 -2 18 -5z
m-308 -179 c0 -17 -22 -14 -28 4 -2 7 3 12 12 12 9 0 16 -7 16 -16z m-693 -70
c-3 -3 -12 -4 -19 -1 -8 3 -5 6 6 6 11 1 17 -2 13 -5z m-510 -26 c-3 -8 -6 -5
-6 6 -1 11 2 17 5 13 3 -3 4 -12 1 -19z m353 -136 c0 -20 -43 -42 -78 -40
l-37 1 37 4 c25 3 42 11 48 24 11 19 30 26 30 11z m-423 -97 c-13 -26 -37 -34
-37 -12 0 16 20 37 36 37 9 0 9 -6 1 -25z m261 -92 c-2 -24 -9 -39 -18 -41
-12 -2 -15 6 -12 38 3 27 9 40 19 40 10 0 13 -10 11 -37z m132 -31 c0 -10 -66
-9 -76 1 -4 4 11 7 34 7 23 0 42 -4 42 -8z"/>
<path d="M5595 4760 c-3 -5 -1 -10 4 -10 6 0 11 5 11 10 0 6 -2 10 -4 10 -3 0
-8 -4 -11 -10z"/>
<path d="M7 4473 c7 -2 19 -2 26 0 6 3 1 5 -13 5 -14 0 -19 -2 -13 -5z"/>
<path d="M1820 4440 c0 -22 5 -40 10 -40 6 0 10 -4 10 -10 0 -5 -17 -10 -37
-10 -31 0 -40 -5 -50 -27 -7 -15 -10 -29 -7 -32 4 -3 9 0 11 7 3 7 22 12 44
12 21 0 39 5 39 10 0 6 18 10 40 10 22 0 40 5 40 10 0 6 18 10 40 10 22 0 40
5 40 10 0 6 -16 10 -35 10 -22 0 -38 6 -41 15 -4 8 -13 15 -20 15 -8 0 -17 -7
-20 -15 -4 -8 -15 -15 -25 -15 -15 0 -19 7 -19 40 0 22 -4 40 -10 40 -5 0 -10
-18 -10 -40z"/>
<path d="M240 4125 c0 -15 4 -24 10 -20 6 3 10 12 10 20 0 8 -4 17 -10 20 -6
4 -10 -5 -10 -20z"/>
<path d="M720 4120 c0 -5 18 -10 40 -10 22 0 40 5 40 10 0 6 -18 10 -40 10
-22 0 -40 -4 -40 -10z"/>
<path d="M358 4073 c7 -3 16 -2 19 1 4 3 -2 6 -13 5 -11 0 -14 -3 -6 -6z"/>
<path d="M340 4015 c-8 -9 -8 -15 -2 -15 12 0 26 19 19 26 -2 2 -10 -2 -17
-11z"/>
<path d="M385 4020 c3 -5 8 -10 11 -10 2 0 4 5 4 10 0 6 -5 10 -11 10 -5 0 -7
-4 -4 -10z"/>
<path d="M600 3986 c0 -9 5 -16 10 -16 6 0 10 4 10 9 0 6 -4 13 -10 16 -5 3
-10 -1 -10 -9z"/>
<path d="M1585 3990 c3 -5 8 -10 11 -10 2 0 4 5 4 10 0 6 -5 10 -11 10 -5 0
-7 -4 -4 -10z"/>
<path d="M5710 3980 c0 -5 5 -10 10 -10 6 0 10 5 10 10 0 6 -4 10 -10 10 -5 0
-10 -4 -10 -10z"/>
<path d="M1475 3910 c4 -6 11 -8 16 -5 14 9 11 15 -7 15 -8 0 -12 -5 -9 -10z"/>
<path d="M780 3700 c0 -5 5 -10 10 -10 6 0 10 5 10 10 0 6 -4 10 -10 10 -5 0
-10 -4 -10 -10z"/>
<path d="M6272 3683 c-7 -3 -17 -16 -22 -29 -6 -13 -18 -24 -28 -24 -22 0 -48
-48 -34 -62 6 -6 22 -3 42 7 29 15 30 18 14 29 -12 9 -14 15 -5 20 6 4 18 3
25 -4 19 -15 61 41 44 58 -13 13 -16 13 -36 5z"/>
<path d="M335 3670 c3 -5 12 -10 20 -10 8 0 17 5 20 10 4 6 -5 10 -20 10 -15
0 -24 -4 -20 -10z"/>
<path d="M500 3585 c0 -8 5 -15 10 -15 6 0 10 7 10 15 0 8 -4 15 -10 15 -5 0
-10 -7 -10 -15z"/>
<path d="M1825 3520 c-3 -5 -1 -10 4 -10 6 0 11 5 11 10 0 6 -2 10 -4 10 -3 0
-8 -4 -11 -10z"/>
<path d="M720 3451 c0 -6 -7 -11 -15 -11 -22 0 -18 -17 5 -30 36 -19 56 14 25
40 -10 9 -15 9 -15 1z"/>
<path d="M1128 3433 c6 -2 18 -2 25 0 6 3 1 5 -13 5 -14 0 -19 -2 -12 -5z"/>
<path d="M978 3353 c12 -2 32 -2 45 0 12 2 2 4 -23 4 -25 0 -35 -2 -22 -4z"/>
<path d="M1187 3335 c-15 -22 -16 -25 -2 -25 8 0 15 -7 15 -15 0 -9 -9 -15
-25 -15 -18 0 -23 4 -19 15 4 10 0 15 -15 15 -13 0 -21 -6 -21 -16 0 -14 -11
-15 -82 -11 -46 3 -67 2 -48 -2 l35 -7 -42 -22 c-24 -12 -43 -29 -43 -37 0
-24 -37 -18 -45 8 -5 17 -8 18 -12 6 -3 -13 -26 -17 -116 -23 -62 -4 -141 -8
-177 -8 -41 0 -51 -2 -27 -5 29 -3 37 -8 35 -21 -2 -12 -14 -17 -38 -18 -82
-1 -110 -5 -110 -13 0 -5 8 -12 18 -14 9 -2 -8 -4 -38 -3 -30 1 -61 5 -68 9
-19 13 -42 -18 -42 -57 0 -35 -1 -36 -40 -36 -36 0 -40 3 -40 25 0 18 -5 25
-19 25 -36 0 -32 -19 8 -46 22 -14 43 -35 47 -46 6 -20 12 -20 104 -14 90 6
99 5 102 -11 4 -15 8 -12 24 14 10 18 26 31 34 31 60 -4 180 4 180 12 0 6 -12
10 -26 10 -14 0 -23 4 -19 10 3 6 15 10 26 10 10 0 19 5 19 10 0 6 18 10 40
10 22 0 40 4 40 9 0 10 28 13 118 15 34 0 62 4 62 9 0 4 14 7 30 7 23 0 30 5
30 19 0 12 11 23 31 30 44 15 49 14 49 -9 0 -17 7 -20 40 -20 31 0 40 -4 40
-17 0 -10 12 -24 27 -30 48 -23 53 -18 53 52 l0 65 40 0 c38 0 40 2 40 30 0
28 -2 30 -40 30 -33 0 -40 -3 -40 -20 0 -24 -8 -25 -30 -5 -13 12 -16 27 -12
65 4 44 2 50 -14 50 -11 0 -27 -12 -37 -25z m-759 -227 c-6 -18 -28 -21 -28
-4 0 9 7 16 16 16 9 0 14 -5 12 -12z m819 6 c-3 -3 -12 -4 -19 -1 -8 3 -5 6 6
6 11 1 17 -2 13 -5z"/>
<path d="M2420 3340 c0 -13 5 -18 15 -14 8 4 15 12 15 20 0 8 -7 14 -15 14 -8
0 -15 -9 -15 -20z"/>
<path d="M2625 3341 c-3 -5 -1 -12 5 -16 5 -3 10 1 10 9 0 18 -6 21 -15 7z"/>
<path d="M612 3260 c-16 -27 -15 -30 8 -30 15 0 20 7 20 25 0 30 -11 32 -28 5z"/>
<path d="M400 3215 c0 -9 -9 -15 -22 -15 -12 0 -19 -3 -16 -6 3 -3 22 -2 42 1
38 8 51 35 16 35 -11 0 -20 -7 -20 -15z"/>
<path d="M1858 3083 c-38 -10 -11 -33 38 -33 17 0 24 6 24 20 0 20 -20 24 -62
13z"/>
<path d="M830 3070 c0 -5 9 -10 19 -10 11 0 23 5 26 10 4 6 -5 10 -19 10 -14
0 -26 -4 -26 -10z"/>
<path d="M25 3040 l-30 -8 37 -1 c20 0 40 4 43 9 7 11 -6 11 -50 0z"/>
<path d="M140 3000 c0 -5 5 -10 10 -10 6 0 10 5 10 10 0 6 -4 10 -10 10 -5 0
-10 -4 -10 -10z"/>
<path d="M8 2983 c7 -3 16 -2 19 1 4 3 -2 6 -13 5 -11 0 -14 -3 -6 -6z"/>
<path d="M240 2970 c0 -5 7 -10 15 -10 8 0 15 5 15 10 0 6 -7 10 -15 10 -8 0
-15 -4 -15 -10z"/>
<path d="M545 2970 c-3 -5 -1 -10 4 -10 6 0 11 5 11 10 0 6 -2 10 -4 10 -3 0
-8 -4 -11 -10z"/>
<path d="M1550 2970 c0 -5 7 -10 15 -10 8 0 15 5 15 10 0 6 -7 10 -15 10 -8 0
-15 -4 -15 -10z"/>
<path d="M870 2960 c-8 -5 -10 -10 -5 -10 6 0 17 5 25 10 8 5 11 10 5 10 -5 0
-17 -5 -25 -10z"/>
<path d="M1378 2963 c12 -2 32 -2 45 0 12 2 2 4 -23 4 -25 0 -35 -2 -22 -4z"/>
<path d="M720 2945 c0 -8 7 -15 15 -15 8 0 15 7 15 15 0 8 -7 15 -15 15 -8 0
-15 -7 -15 -15z"/>
<path d="M0 2920 c0 -5 4 -10 9 -10 6 0 13 5 16 10 3 6 -1 10 -9 10 -9 0 -16
-4 -16 -10z"/>
<path d="M1278 2903 c-12 -51 17 -65 109 -56 52 6 53 5 53 -21 0 -14 5 -26 10
-26 6 0 10 18 10 40 0 22 -4 40 -10 40 -5 0 -10 6 -10 14 0 9 -20 15 -61 20
-89 9 -96 8 -101 -11z m82 -39 c0 -9 -5 -14 -12 -12 -18 6 -21 28 -4 28 9 0
16 -7 16 -16z"/>
<path d="M1561 2894 c-27 -30 -21 -57 11 -52 19 2 24 10 26 41 4 44 -6 47 -37
11z"/>
<path d="M560 2872 c0 -4 18 -6 40 -4 22 2 40 6 40 8 0 2 -18 4 -40 4 -22 0
-40 -3 -40 -8z"/>
<path d="M1500 2840 c0 -33 3 -40 20 -40 21 0 27 15 10 25 -5 3 -10 17 -10 31
0 13 -4 24 -10 24 -5 0 -10 -18 -10 -40z"/>
<path d="M1760 2855 c0 -15 4 -24 10 -20 6 3 10 12 10 20 0 8 -4 17 -10 20 -6
4 -10 -5 -10 -20z"/>
<path d="M1082 2838 c-7 -7 -12 -18 -12 -25 0 -8 -12 -13 -30 -13 -25 0 -30
-4 -30 -25 0 -16 6 -25 15 -25 8 0 15 7 15 15 0 11 11 15 40 15 39 0 40 1 40
35 0 36 -15 46 -38 23z"/>
<path d="M0 2810 c0 -5 7 -10 16 -10 8 0 12 5 9 10 -3 6 -10 10 -16 10 -5 0
-9 -4 -9 -10z"/>
<path d="M1280 2805 c0 -9 5 -15 11 -13 6 2 11 8 11 13 0 5 -5 11 -11 13 -6 2
-11 -4 -11 -13z"/>
<path d="M1228 2793 c7 -3 16 -2 19 1 4 3 -2 6 -13 5 -11 0 -14 -3 -6 -6z"/>
<path d="M1251 2734 c0 -11 3 -14 6 -6 3 7 2 16 -1 19 -3 4 -6 -2 -5 -13z"/>
<path d="M720 2730 c0 -5 18 -10 40 -10 22 0 40 5 40 10 0 6 -18 10 -40 10
-22 0 -40 -4 -40 -10z"/>
<path d="M498 2723 c12 -2 32 -2 45 0 12 2 2 4 -23 4 -25 0 -35 -2 -22 -4z"/>
<path d="M1945 2700 c-3 -6 5 -10 19 -10 14 0 28 5 31 10 3 6 -5 10 -19 10
-14 0 -28 -4 -31 -10z"/>
<path d="M960 2655 c0 -8 7 -15 16 -15 14 0 14 3 4 15 -7 8 -14 15 -16 15 -2
0 -4 -7 -4 -15z"/>
<path d="M219 2607 c4 -47 26 -76 44 -58 8 8 7 11 -6 11 -10 0 -17 8 -17 20 0
17 7 20 39 20 27 0 41 5 45 16 8 21 11 20 -54 27 l-55 5 4 -41z"/>
<path d="M0 2600 c0 -24 5 -40 12 -40 9 0 9 -3 0 -12 -7 -7 -12 -40 -12 -80 0
-54 3 -68 15 -68 8 0 24 -9 35 -20 18 -18 22 -19 35 -6 8 8 15 19 15 24 0 5 7
15 15 22 12 10 18 10 30 0 10 -8 15 -9 15 -2 0 6 11 23 25 37 21 20 36 25 78
25 32 0 62 6 75 16 13 9 30 13 40 9 14 -5 14 -7 2 -16 -10 -6 7 -9 55 -7 39 1
73 6 77 12 4 6 15 0 27 -15 16 -18 20 -20 21 -8 0 9 9 19 21 22 30 8 19 27
-25 42 -29 10 -45 11 -62 3 -18 -8 -34 -8 -64 2 -33 11 -48 11 -82 0 -52 -15
-56 -17 -88 -35 -14 -8 -42 -15 -62 -15 -27 0 -38 -4 -38 -15 0 -17 -25 -20
-35 -5 -3 6 -24 10 -45 10 -42 0 -53 8 -40 30 5 9 5 19 -2 27 -8 10 -4 13 16
13 22 0 26 4 26 30 0 23 -5 30 -19 30 -10 0 -21 7 -25 15 -3 8 -12 15 -21 15
-11 0 -15 -11 -15 -40z"/>
<path d="M160 2600 c0 -22 5 -40 10 -40 6 0 10 18 10 40 0 22 -4 40 -10 40 -5
0 -10 -18 -10 -40z"/>
<path d="M530 2600 c0 -32 4 -40 18 -40 10 0 23 5 29 11 14 14 34 3 27 -15 -3
-8 7 -18 25 -26 26 -11 35 -10 57 5 22 14 28 15 35 4 17 -27 44 4 47 55 3 43
2 46 -22 46 -13 0 -26 -4 -28 -9 -1 -4 -31 -11 -66 -14 -49 -4 -65 -2 -69 9
-3 8 -16 14 -29 14 -21 0 -24 -4 -24 -40z"/>
<path d="M880 2619 c0 -24 23 -21 28 4 2 10 -3 17 -12 17 -10 0 -16 -9 -16
-21z"/>
<path d="M1185 2619 c-4 -6 -1 -15 6 -20 20 -13 54 -6 54 11 0 18 -50 26 -60
9z"/>
<path d="M350 2570 c0 -5 5 -10 10 -10 6 0 10 5 10 10 0 6 -4 10 -10 10 -5 0
-10 -4 -10 -10z"/>
<path d="M1262 2563 c-12 -2 -20 -9 -17 -14 9 -14 32 -11 39 6 3 8 4 14 3 14
-1 -1 -12 -4 -25 -6z"/>
<path d="M460 2550 c0 -5 5 -10 10 -10 6 0 10 5 10 10 0 6 -4 10 -10 10 -5 0
-10 -4 -10 -10z"/>
<path d="M815 2550 c3 -5 13 -10 21 -10 8 0 14 5 14 10 0 6 -9 10 -21 10 -11
0 -17 -4 -14 -10z"/>
<path d="M888 2553 c6 -2 18 -2 25 0 6 3 1 5 -13 5 -14 0 -19 -2 -12 -5z"/>
<path d="M65 2520 c3 -5 8 -10 11 -10 2 0 4 5 4 10 0 6 -5 10 -11 10 -5 0 -7
-4 -4 -10z"/>
<path d="M903 2471 c-2 -10 -15 -23 -29 -29 -24 -12 -24 -42 1 -42 7 0 15 -9
18 -20 3 -12 14 -20 27 -20 13 0 24 8 27 20 4 16 14 20 49 20 24 0 44 -4 44
-10 0 -5 -18 -10 -40 -10 -22 0 -40 -4 -40 -10 0 -5 17 -10 39 -10 35 0 39 -3
45 -31 8 -41 8 -49 -1 -48 -30 5 -36 -2 -17 -18 55 -48 94 -56 94 -18 0 14 7
28 15 31 11 5 15 22 15 65 0 32 3 59 8 60 4 0 15 2 25 4 10 2 17 -3 17 -11 0
-9 5 -12 11 -8 6 3 8 17 5 29 -8 32 11 41 35 19 17 -15 22 -16 29 -4 7 11 11
11 24 1 13 -11 19 -11 31 -1 12 10 19 10 27 2 12 -12 48 -17 48 -7 0 2 -11 15
-24 28 -22 22 -24 23 -35 5 -15 -24 -48 -23 -63 2 -11 17 -24 20 -81 20 -37 0
-76 -5 -86 -12 -15 -9 -25 -9 -46 0 -34 16 -115 16 -115 0 0 -6 -7 -4 -18 5
-24 22 -33 21 -39 -2z m207 -116 c0 -31 -5 -47 -15 -51 -23 -9 -45 21 -45 60
0 33 2 36 30 36 29 0 30 -2 30 -45z m-15 -81 c13 -5 14 -8 3 -15 -21 -14 -38
-10 -32 6 7 17 7 17 29 9z"/>
<path d="M655 2447 c-28 -21 -11 -39 23 -25 37 16 38 18 22 28 -20 13 -23 12
-45 -3z"/>
<path d="M210 2425 c-7 -9 -11 -16 -9 -18 37 -21 50 -25 70 -21 23 5 23 5 5
-10 -11 -9 -23 -16 -28 -16 -4 0 -8 -4 -8 -10 0 -5 8 -10 18 -10 14 0 15 -2 2
-10 -21 -14 3 -13 35 2 15 7 24 17 21 25 -3 8 -1 11 5 8 11 -7 39 12 39 26 0
4 -27 7 -60 5 -58 -4 -60 -3 -60 20 0 27 -12 31 -30 9z"/>
<path d="M1540 2426 c0 -17 27 -29 35 -16 4 6 3 15 0 20 -9 15 -35 12 -35 -4z"/>
<path d="M480 2412 c0 -7 5 -12 10 -12 18 0 12 -77 -6 -84 -9 -4 -19 -4 -22
-1 -3 3 0 5 6 5 7 0 12 5 12 10 0 6 -18 10 -40 10 -55 0 -55 -29 0 -56 36 -17
54 -44 30 -44 -17 0 -11 -24 15 -54 14 -16 25 -33 25 -38 0 -17 22 -7 27 12 4
17 14 20 54 20 39 0 49 3 49 17 0 14 2 14 20 -2 19 -17 21 -17 40 0 18 16 20
16 20 2 0 -13 9 -17 40 -17 l40 0 0 70 c0 57 3 70 16 70 9 0 14 7 12 18 -2 11
-18 20 -46 26 -23 6 -42 15 -42 22 0 6 -7 14 -15 17 -11 5 -12 1 -5 -17 8 -22
7 -23 -23 -16 -18 4 -45 15 -62 24 -33 17 -59 21 -51 7 3 -5 -1 -11 -9 -15
-24 -9 -18 -45 10 -58 20 -9 25 -18 25 -50 0 -21 -4 -38 -10 -38 -5 0 -10 18
-10 40 0 36 -2 40 -25 40 -22 0 -25 4 -25 40 0 32 -4 40 -18 40 -10 0 -23 5
-30 12 -9 9 -12 9 -12 0z m158 -62 c-2 -6 -8 -6 -18 0 -13 9 -13 11 0 20 15
10 25 0 18 -20z m-98 -120 c0 -5 -9 -10 -20 -10 -11 0 -20 5 -20 10 0 6 9 10
20 10 11 0 20 -4 20 -10z"/>
<path d="M1500 2348 c-20 -7 -22 -11 -10 -18 23 -14 50 -12 50 4 0 21 -11 25
-40 14z"/>
<path d="M0 2316 c0 -2 7 -6 15 -10 8 -3 15 -1 15 4 0 6 -7 10 -15 10 -8 0
-15 -2 -15 -4z"/>
<path d="M100 2290 c0 -13 7 -20 20 -20 13 0 20 7 20 20 0 13 -7 20 -20 20
-13 0 -20 -7 -20 -20z"/>
<path d="M220 2274 c0 -3 5 -14 10 -25 8 -14 21 -19 50 -19 39 0 40 -1 40 -34
0 -28 -4 -35 -22 -39 l-23 -4 23 -2 c12 0 22 -5 22 -11 0 -5 5 -10 10 -10 6 0
10 7 10 15 0 9 9 15 25 15 29 0 33 -15 8 -29 -14 -7 -15 -13 -7 -21 13 -13 52
4 67 28 4 6 14 12 22 12 11 0 12 6 6 22 -11 30 -31 35 -38 9 -3 -12 -9 -21
-14 -21 -13 0 -11 34 2 47 14 14 4 47 -11 38 -6 -4 -44 -3 -85 0 -54 5 -75 11
-75 21 0 8 -4 14 -10 14 -5 0 -10 -3 -10 -6z"/>
<path d="M880 2245 l0 -37 48 3 c26 1 55 -1 65 -6 31 -13 45 11 19 35 -11 11
-28 20 -36 20 -8 0 -17 6 -19 13 -4 7 -8 3 -12 -10 -8 -25 -45 -32 -45 -9 0 8
-4 18 -10 21 -6 4 -10 -9 -10 -30z"/>
<path d="M1185 2270 c-3 -5 -1 -10 4 -10 6 0 11 5 11 10 0 6 -2 10 -4 10 -3 0
-8 -4 -11 -10z"/>
<path d="M137 2255 c-16 -12 -14 -13 17 -13 40 0 44 3 18 17 -12 6 -23 5 -35
-4z"/>
<path d="M0 2245 c0 -17 2 -18 24 -9 18 7 12 24 -10 24 -8 0 -14 -7 -14 -15z"/>
<path d="M60 2190 c0 -5 5 -10 10 -10 6 0 10 5 10 10 0 6 -4 10 -10 10 -5 0
-10 -4 -10 -10z"/>
<path d="M100 2150 c0 -5 6 -10 14 -10 8 0 18 5 21 10 3 6 -3 10 -14 10 -12 0
-21 -4 -21 -10z"/>
<path d="M160 2136 c0 -13 -7 -26 -15 -30 -26 -9 -17 -22 25 -36 31 -10 43
-11 52 -2 9 9 9 12 0 12 -7 0 -12 9 -12 20 0 18 -32 60 -45 60 -3 0 -5 -11 -5
-24z"/>
<path d="M212 2143 c4 -22 48 -31 48 -10 0 14 -20 27 -42 27 -5 0 -8 -8 -6
-17z"/>
<path d="M0 2119 c0 -5 5 -7 10 -4 5 3 10 8 10 11 0 2 -4 4 -10 4 -5 0 -10 -5
-10 -11z"/>
<path d="M254 2099 c-15 -17 -16 -22 -4 -29 9 -5 19 -5 27 2 7 5 18 8 25 5 8
-3 14 5 14 19 2 31 -35 33 -62 3z"/>
<path d="M706 2091 c-4 -7 -5 -15 -2 -18 9 -9 19 4 14 18 -4 11 -6 11 -12 0z"/>
<path d="M430 2071 c0 -6 5 -13 10 -16 6 -3 10 1 10 9 0 9 -4 16 -10 16 -5 0
-10 -4 -10 -9z"/>
<path d="M620 2040 c0 -5 5 -10 10 -10 6 0 10 5 10 10 0 6 -4 10 -10 10 -5 0
-10 -4 -10 -10z"/>
<path d="M217 1984 c-13 -13 -7 -22 24 -38 23 -11 42 -13 75 -7 54 10 61 16
44 36 -16 20 -27 19 -52 -4 -21 -20 -49 -18 -45 2 2 13 -35 22 -46 11z"/>
<path d="M465 1960 c3 -5 8 -10 11 -10 2 0 4 5 4 10 0 6 -5 10 -11 10 -5 0 -7
-4 -4 -10z"/>
<path d="M160 1950 c0 -5 5 -10 11 -10 5 0 7 5 4 10 -3 6 -8 10 -11 10 -2 0
-4 -4 -4 -10z"/>
<path d="M240 1920 c0 -5 12 -10 28 -9 24 0 25 1 7 9 -27 12 -35 12 -35 0z"/>
<path d="M18 1893 c12 -2 32 -2 45 0 12 2 2 4 -23 4 -25 0 -35 -2 -22 -4z"/>
<path d="M635 1890 c3 -5 8 -10 11 -10 2 0 4 5 4 10 0 6 -5 10 -11 10 -5 0 -7
-4 -4 -10z"/>
<path d="M189 1883 c-32 -4 -36 -7 -31 -29 4 -21 1 -24 -27 -24 -18 0 -30 4
-27 9 3 5 -1 11 -9 15 -10 4 -15 -1 -15 -14 0 -16 7 -20 33 -20 43 0 78 10 72
21 -3 4 6 16 21 25 22 15 27 15 36 3 8 -12 9 -12 6 0 -5 17 -11 19 -59 14z"/>
<path d="M532 1843 c9 -2 20 -13 23 -24 7 -20 25 -27 25 -9 0 6 -4 10 -10 10
-5 0 -10 7 -10 15 0 9 -9 15 -22 14 -17 -1 -18 -3 -6 -6z"/>
<path d="M468 1828 c9 -9 15 -9 24 0 9 9 7 12 -12 12 -19 0 -21 -3 -12 -12z"/>
<path d="M0 1731 c0 -9 24 -21 42 -21 6 0 6 6 -2 15 -14 16 -40 20 -40 6z"/>
<path d="M400 1720 c0 -6 -17 -10 -37 -10 -38 -1 -83 -28 -83 -50 0 -9 11 -10
35 -6 23 5 45 2 66 -9 17 -9 34 -13 37 -9 4 4 1 9 -5 11 -18 7 -16 44 3 58 16
11 16 12 0 18 -9 4 -16 2 -16 -3z"/>
<path d="M240 1630 c0 -5 4 -10 9 -10 6 0 13 5 16 10 3 6 -1 10 -9 10 -9 0
-16 -4 -16 -10z"/>
<path d="M290 1612 c0 -5 9 -17 19 -26 16 -15 23 -16 43 -5 l23 12 -30 13
c-35 15 -55 17 -55 6z"/>
<path d="M80 1551 c0 -6 17 -11 40 -11 33 0 40 -3 40 -20 0 -23 3 -24 47 -8
35 13 45 38 14 38 -10 0 -46 3 -80 6 -43 5 -61 3 -61 -5z"/>
<path d="M721 1534 c0 -11 3 -14 6 -6 3 7 2 16 -1 19 -3 4 -6 -2 -5 -13z"/>
<path d="M793 1526 c-6 -8 -9 -16 -6 -19 6 -7 43 15 43 25 0 13 -24 8 -37 -6z"/>
<path d="M0 1491 c0 -16 6 -32 13 -34 9 -4 9 -8 -1 -15 -8 -5 -12 -18 -9 -28
4 -17 6 -17 12 4 4 12 15 22 25 22 10 0 21 -10 25 -22 6 -20 8 -21 12 -5 8 29
-4 47 -32 47 -20 0 -25 5 -25 24 0 14 -4 28 -10 31 -6 4 -10 -6 -10 -24z"/>
<path d="M160 1470 c0 -5 18 -10 40 -10 22 0 40 5 40 10 0 6 -18 10 -40 10
-22 0 -40 -4 -40 -10z"/>
<path d="M1720 1371 c-5 -11 -10 -22 -10 -25 0 -9 36 -7 65 4 23 9 25 13 15
25 -18 21 -57 19 -70 -4z"/>
<path d="M1230 1264 c0 -9 5 -14 12 -12 18 6 21 28 4 28 -9 0 -16 -7 -16 -16z"/>
<path d="M1108 1243 c-21 -5 -24 -19 -6 -25 12 -4 38 14 38 26 0 6 -5 6 -32
-1z"/>
<path d="M627 1213 c-3 -5 -2 -15 2 -22 5 -7 11 -9 14 -4 3 5 2 15 -2 22 -5 7
-11 9 -14 4z"/>
<path d="M697 1213 c-2 -5 4 -16 15 -25 18 -18 23 -12 12 16 -6 17 -20 21 -27
9z"/>
<path d="M830 1201 c0 -5 9 -7 20 -4 11 3 20 7 20 9 0 2 -9 4 -20 4 -11 0 -20
-4 -20 -9z"/>
<path d="M517 1194 c-4 -4 -7 -14 -7 -23 0 -11 3 -12 11 -4 6 6 10 16 7 23 -2
6 -7 8 -11 4z"/>
<path d="M580 1189 c0 -5 5 -7 10 -4 6 3 10 8 10 11 0 2 -4 4 -10 4 -5 0 -10
-5 -10 -11z"/>
<path d="M1200 1140 c0 -11 4 -20 9 -20 5 0 7 9 4 20 -3 11 -7 20 -9 20 -2 0
-4 -9 -4 -20z"/>
<path d="M791 1134 c0 -11 3 -14 6 -6 3 7 2 16 -1 19 -3 4 -6 -2 -5 -13z"/>
<path d="M428 1123 c6 -2 18 -2 25 0 6 3 1 5 -13 5 -14 0 -19 -2 -12 -5z"/>
<path d="M796 1005 c-2 -7 -2 -15 0 -18 7 -7 44 4 44 13 0 14 -39 18 -44 5z"/>
<path d="M964 1009 c-4 -7 0 -15 8 -20 9 -5 19 -21 23 -36 6 -25 8 -26 19 -11
7 9 19 16 27 16 38 -2 60 3 54 13 -4 6 -19 7 -36 4 -23 -5 -33 -1 -52 19 -27
29 -33 31 -43 15z"/>
<path d="M880 995 c0 -8 5 -15 10 -15 6 0 10 -4 10 -10 0 -5 -12 -10 -26 -10
-19 0 -25 -4 -22 -17 2 -10 9 -18 16 -17 6 1 30 2 52 3 50 1 52 19 6 55 -40
30 -46 32 -46 11z"/>
<path d="M728 963 c6 -2 18 -2 25 0 6 3 1 5 -13 5 -14 0 -19 -2 -12 -5z"/>
<path d="M1356 946 c3 -9 13 -16 22 -16 8 0 13 1 11 3 -2 1 -12 9 -22 16 -15
12 -17 12 -11 -3z"/>
<path d="M785 931 c-3 -5 -1 -12 5 -16 5 -3 10 1 10 9 0 18 -6 21 -15 7z"/>
<path d="M1031 922 c-6 -2 -11 -12 -11 -22 0 -10 -12 -28 -26 -39 -19 -15 -24
-26 -19 -41 7 -22 40 -27 48 -7 3 8 20 11 51 9 38 -3 46 -7 46 -24 0 -19 -4
-20 -80 -13 -56 5 -80 4 -80 -4 0 -17 -40 -13 -46 4 -8 21 -34 19 -34 -2 0
-14 -3 -14 -12 -5 -10 10 -10 15 2 22 8 5 12 11 10 13 -8 7 -160 -5 -160 -13
0 -3 14 -5 30 -2 26 4 30 1 30 -20 0 -13 5 -29 12 -36 6 -6 9 -15 5 -19 -4 -4
-13 -1 -19 5 -15 15 -58 16 -58 2 0 -15 -77 -12 -84 3 -5 10 -7 10 -12 0 -3
-7 -14 -13 -25 -13 -16 0 -19 -7 -19 -41 0 -32 -3 -40 -14 -36 -10 4 -13 1
-10 -8 3 -8 12 -15 19 -17 9 -2 10 -9 3 -28 -6 -15 -12 -20 -15 -12 -3 7 -23
12 -49 12 -37 0 -46 4 -53 23 -7 18 -5 23 10 25 24 4 15 22 -10 22 -11 0 -25
-14 -35 -35 -16 -33 -18 -34 -40 -20 -20 14 -27 14 -60 0 -20 -9 -39 -22 -43
-30 -3 -8 -17 -15 -32 -16 -26 0 -26 0 -3 -10 15 -5 22 -15 20 -26 -4 -20 -6
-20 -92 -1 -58 13 -89 38 -47 38 11 0 23 5 26 10 3 6 15 10 26 10 25 0 25 27
-1 35 -24 8 -80 -20 -80 -40 0 -8 -4 -15 -10 -15 -5 0 -10 9 -10 20 0 11 -4
20 -9 20 -5 0 -9 -13 -9 -30 1 -16 5 -30 10 -30 4 0 8 -15 8 -33 0 -32 -2 -33
-30 -29 -17 2 -30 8 -30 13 0 5 -4 9 -10 9 -15 0 -13 -97 3 -103 9 -4 9 -6 0
-6 -10 -1 -13 -45 -13 -187 l0 -186 43 6 c23 3 36 3 30 0 -45 -20 35 -24 551
-24 442 0 565 3 569 13 4 9 6 9 6 0 1 -18 137 -18 145 0 5 9 7 9 12 0 8 -19
470 -19 477 0 4 9 6 9 6 0 1 -8 14 -13 31 -13 28 0 30 2 20 20 -6 11 -20 20
-30 20 -13 0 -20 7 -20 20 0 16 -7 20 -35 20 -19 0 -35 -4 -35 -10 0 -12 -47
-14 -54 -2 -3 5 10 14 29 20 38 14 49 35 35 62 -19 36 -12 80 17 105 27 23 28
23 9 44 -19 21 -19 21 7 21 17 0 27 5 27 15 0 21 83 21 104 0 19 -20 26 -19
26 3 0 27 -29 62 -52 62 -17 0 -18 2 -8 15 10 12 10 15 -4 15 -9 0 -16 7 -16
15 0 8 8 15 18 15 9 0 30 11 46 25 16 14 33 25 38 25 23 0 4 28 -27 39 -29 10
-39 10 -62 -3 -16 -9 -36 -18 -45 -22 -10 -3 -18 -12 -18 -20 0 -7 8 -17 18
-23 14 -8 15 -10 2 -15 -8 -3 -28 -6 -45 -8 -23 -2 -31 -9 -33 -27 -2 -13 -10
-31 -18 -39 -13 -12 -19 -10 -46 17 -36 36 -54 39 -63 12 -7 -22 -55 -35 -55
-15 0 8 -8 14 -17 14 -17 1 -17 1 0 11 20 12 23 35 5 42 -8 4 -7 6 3 6 9 1 19
-8 22 -19 7 -26 27 -26 34 0 3 11 12 20 19 20 8 0 14 6 14 13 1 12 45 67 55
67 3 0 5 -18 5 -39 0 -22 5 -41 13 -44 9 -3 11 8 8 41 l-3 45 51 -5 c43 -4 53
-2 62 14 8 15 14 16 30 7 15 -8 28 -7 50 1 16 7 29 16 29 20 0 10 -50 31 -60
25 -5 -3 -11 -1 -15 5 -3 5 3 10 13 10 11 0 32 7 48 14 15 8 32 13 36 9 5 -3
12 4 15 16 6 24 43 29 43 7 0 -18 17 -30 24 -17 7 11 -27 51 -43 51 -7 0 -19
-7 -27 -15 -18 -18 -60 -5 -56 18 1 8 -7 17 -18 20 -11 3 -20 12 -20 21 0 12
-10 16 -40 16 -22 0 -40 5 -40 10 0 6 -9 10 -20 10 -21 0 -60 -33 -60 -51 0
-6 -12 -1 -27 11 -26 20 -28 20 -40 4 -7 -10 -13 -24 -13 -31 0 -7 -9 -13 -20
-13 -21 0 -27 15 -10 25 19 12 10 25 -16 25 -16 0 -34 10 -46 25 -24 31 -73
34 -98 5 -17 -19 -17 -19 -30 8 l-14 27 -4 -24 c-3 -16 -6 -20 -12 -12 -10 17
-100 4 -100 -15 0 -7 -10 -20 -22 -28 -20 -14 -24 -14 -41 1 -15 14 -21 15
-35 5 -9 -7 -23 -15 -30 -18 -15 -7 -52 23 -52 42 0 7 -6 14 -12 17 -21 6 11
37 38 37 13 0 38 9 56 20 l33 20 -43 0 c-33 0 -48 -5 -62 -22 -15 -19 -21 -21
-31 -10 -7 6 -30 12 -51 12 -32 0 -38 3 -38 21 0 18 5 20 33 16 17 -3 43 -8
57 -13 25 -7 25 -7 7 13 -17 19 -80 34 -106 25z m-211 -131 c0 -6 -4 -13 -10
-16 -5 -3 -10 1 -10 9 0 9 5 16 10 16 6 0 10 -4 10 -9z m1020 -26 c0 -8 -7
-15 -15 -15 -16 0 -20 12 -8 23 11 12 23 8 23 -8z m-713 -57 c-2 -13 -4 -5 -4
17 -1 22 1 32 4 23 2 -10 2 -28 0 -40z m-454 -5 c41 -12 8 -59 -48 -66 -22 -3
-32 -3 -22 -1 12 4 17 16 17 46 0 34 3 39 18 33 9 -4 25 -10 35 -12z m524 -5
c-3 -8 -6 -5 -6 6 -1 11 2 17 5 13 3 -3 4 -12 1 -19z m643 -50 c0 -7 -12 -21
-25 -31 -23 -17 -25 -17 -25 -1 0 16 26 43 43 44 4 0 7 -6 7 -12z m-533 -4
c-3 -3 -12 -4 -19 -1 -8 3 -5 6 6 6 11 1 17 -2 13 -5z m-350 -10 c-3 -3 -12
-4 -19 -1 -8 3 -5 6 6 6 11 1 17 -2 13 -5z m-450 -80 c-3 -3 -12 -4 -19 -1 -8
3 -5 6 6 6 11 1 17 -2 13 -5z m1093 -4 c0 -5 -4 -10 -9 -10 -6 0 -13 5 -16 10
-3 6 1 10 9 10 9 0 16 -4 16 -10z m-1425 -60 c3 -5 1 -10 -4 -10 -6 0 -11 5
-11 10 0 6 2 10 4 10 3 0 8 -4 11 -10z m1370 0 c3 -5 -1 -10 -9 -10 -9 0 -16
5 -16 10 0 6 4 10 9 10 6 0 13 -4 16 -10z m-1325 -14 c0 -3 -4 -8 -10 -11 -5
-3 -10 -1 -10 4 0 6 5 11 10 11 6 0 10 -2 10 -4z m177 -2 c-3 -3 -12 -4 -19
-1 -8 3 -5 6 6 6 11 1 17 -2 13 -5z m79 -39 c-6 -17 -42 -20 -51 -6 -3 6 7 16
22 23 29 14 39 8 29 -17z m-221 6 c3 -5 1 -12 -5 -16 -5 -3 -10 1 -10 9 0 18
6 21 15 7z m145 -11 c0 -5 -7 -10 -15 -10 -8 0 -15 5 -15 10 0 6 7 10 15 10 8
0 15 -4 15 -10z m1149 1 c11 -7 9 -11 -8 -20 -18 -10 -21 -9 -21 9 0 22 7 25
29 11z m311 -1 c0 -5 -4 -10 -10 -10 -5 0 -10 5 -10 10 0 6 5 10 10 10 6 0 10
-4 10 -10z m-152 -83 c2 -19 -1 -27 -12 -27 -11 0 -16 10 -16 31 0 38 24 35
28 -4z m-1618 -7 c12 -23 11 -24 -27 -9 -22 8 -24 12 -13 19 22 14 28 12 40
-10z m373 -66 c10 -10 -36 -94 -51 -94 -12 0 -12 3 -2 15 10 12 10 18 -1 31
-11 14 -13 14 -21 -1 -9 -15 -28 -12 -28 6 0 31 81 65 103 43z m37 2 c0 -3 -4
-8 -10 -11 -5 -3 -10 -1 -10 4 0 6 5 11 10 11 6 0 10 -2 10 -4z m1199 -48 c-8
-15 -13 -16 -31 -7 -19 10 -19 12 -5 21 10 5 17 17 17 26 1 15 2 15 15 -2 10
-14 11 -24 4 -38z m61 0 c0 -16 -3 -19 -11 -11 -6 6 -8 16 -5 22 11 17 16 13
16 -11z m-1613 -4 c-3 -3 -12 -4 -19 -1 -8 3 -5 6 6 6 11 1 17 -2 13 -5z m91
-16 c-7 -19 -38 -22 -38 -4 0 10 9 16 21 16 12 0 19 -5 17 -12z m82 2 c0 -5
-2 -10 -4 -10 -3 0 -8 5 -11 10 -3 6 -1 10 4 10 6 0 11 -4 11 -10z m985 -20
c3 -5 -1 -10 -9 -10 -9 0 -16 5 -16 10 0 6 4 10 9 10 6 0 13 -4 16 -10z m-945
-21 c0 -5 -7 -9 -15 -9 -15 0 -20 12 -9 23 8 8 24 -1 24 -14z m1378 -6 c-10
-2 -26 -2 -35 0 -10 3 -2 5 17 5 19 0 27 -2 18 -5z"/>
<path d="M2240 894 c0 -8 5 -12 10 -9 6 4 8 11 5 16 -9 14 -15 11 -15 -7z"/>
<path d="M700 890 c-8 -5 -12 -12 -8 -15 10 -10 49 5 43 16 -8 11 -16 11 -35
-1z"/>
<path d="M460 876 c0 -9 30 -14 35 -6 4 6 -3 10 -14 10 -12 0 -21 -2 -21 -4z"/>
<path d="M582 863 c2 -10 10 -18 18 -18 8 0 16 8 18 18 2 12 -3 17 -18 17 -15
0 -20 -5 -18 -17z"/>
<path d="M800 864 c0 -16 8 -19 52 -19 29 0 65 -3 81 -8 17 -4 27 -4 27 3 0 5
-9 10 -20 10 -11 0 -23 7 -26 15 -7 17 -34 20 -34 4 0 -6 -8 -9 -17 -6 -62 20
-63 20 -63 1z"/>
<path d="M1495 870 c3 -5 10 -10 16 -10 5 0 9 5 9 10 0 6 -7 10 -16 10 -8 0
-12 -4 -9 -10z"/>
<path d="M1558 873 c7 -3 16 -2 19 1 4 3 -2 6 -13 5 -11 0 -14 -3 -6 -6z"/>
<path d="M2175 870 c3 -5 8 -10 11 -10 2 0 4 5 4 10 0 6 -5 10 -11 10 -5 0 -7
-4 -4 -10z"/>
<path d="M2331 864 c0 -11 3 -14 6 -6 3 7 2 16 -1 19 -3 4 -6 -2 -5 -13z"/>
<path d="M1465 840 c-3 -5 1 -10 9 -10 9 0 16 5 16 10 0 6 -4 10 -9 10 -6 0
-13 -4 -16 -10z"/>
<path d="M515 810 c-3 -6 5 -10 19 -10 13 0 26 -6 29 -12 2 -7 8 -10 12 -5 9
8 -23 36 -42 37 -6 0 -15 -4 -18 -10z"/>
<path d="M453 803 c-7 -2 -13 -11 -13 -20 0 -20 34 -12 38 10 3 17 -3 20 -25
10z"/>
<path d="M640 790 c0 -5 5 -10 10 -10 6 0 10 5 10 10 0 6 -4 10 -10 10 -5 0
-10 -4 -10 -10z"/>
<path d="M505 701 c-7 -12 12 -24 25 -16 11 7 4 25 -10 25 -5 0 -11 -4 -15 -9z"/>
<path d="M268 693 c6 -2 18 -2 25 0 6 3 1 5 -13 5 -14 0 -19 -2 -12 -5z"/>
<path d="M2018 473 c6 -2 18 -2 25 0 6 3 1 5 -13 5 -14 0 -19 -2 -12 -5z"/>
<path d="M2255 331 c-6 -11 9 -23 19 -14 9 9 7 23 -3 23 -6 0 -12 -4 -16 -9z"/>
<path d="M1935 300 c-19 -7 -18 -8 7 -15 15 -4 35 -2 45 4 10 6 13 11 6 11 -6
0 -17 2 -25 4 -7 3 -22 1 -33 -4z"/>
<path d="M1840 256 c0 -9 7 -16 16 -16 17 0 14 22 -4 28 -7 2 -12 -3 -12 -12z"/>
<path d="M1904 209 c-10 -16 11 -31 37 -27 l23 3 -26 17 c-18 12 -29 14 -34 7z"/>
<path d="M2138 213 c7 -3 16 -2 19 1 4 3 -2 6 -13 5 -11 0 -14 -3 -6 -6z"/>
<path d="M2105 150 c-16 -18 -16 -20 -2 -20 9 0 21 9 27 20 6 11 7 20 2 20 -5
0 -17 -9 -27 -20z"/>
<path d="M1832 140 c7 -11 25 -22 41 -26 19 -4 27 -11 23 -20 -3 -8 -1 -14 4
-14 6 0 10 -6 10 -14 0 -8 5 -18 11 -22 9 -5 10 3 5 30 -4 23 -3 36 4 36 13 0
13 37 0 45 -5 3 -10 1 -10 -4 0 -6 -18 -11 -40 -11 -22 0 -40 5 -40 10 0 6 -5
10 -10 10 -6 0 -5 -8 2 -20z"/>
<path d="M2060 130 c0 -5 5 -10 10 -10 6 0 10 5 10 10 0 6 -4 10 -10 10 -5 0
-10 -4 -10 -10z"/>
<path d="M1996 104 c-8 -22 -4 -25 11 -9 7 8 9 16 4 19 -5 3 -12 -1 -15 -10z"/>
</g>
</svg>
