<?xml version="1.0" encoding="utf-8"?>
<!-- Generator: Adobe Illustrator 16.0.4, SVG Export Plug-In . SVG Version: 6.00 Build 0)  -->
<!DOCTYPE svg PUBLIC "-//W3C//DTD SVG 1.1//EN" "http://www.w3.org/Graphics/SVG/1.1/DTD/svg11.dtd">
<svg version="1.1" id="Your_Icon" xmlns="http://www.w3.org/2000/svg" xmlns:xlink="http://www.w3.org/1999/xlink" x="0px" y="0px"
	 width="100px" height="100px" viewBox="0 0 100 100" enable-background="new 0 0 100 100" xml:space="preserve">
<g>
	<path d="M83.827,45.868H16.173c-2.282,0-4.132,1.85-4.132,4.132s1.85,4.132,4.132,4.132h67.655c2.281,0,4.132-1.85,4.132-4.132
		S86.109,45.868,83.827,45.868z"/>
	<path d="M83.827,71.239H16.173c-2.282,0-4.132,1.85-4.132,4.132c0,2.281,1.85,4.132,4.132,4.132h67.655
		c2.281,0,4.132-1.851,4.132-4.132C87.96,73.089,86.109,71.239,83.827,71.239z"/>
	<path d="M16.173,28.761h67.655c2.281,0,4.132-1.85,4.132-4.132c0-2.282-1.851-4.132-4.132-4.132H16.173
		c-2.282,0-4.132,1.85-4.132,4.132C12.041,26.911,13.89,28.761,16.173,28.761z"/>
</g>
</svg>
